<svg id="Layer_1" data-name="Layer 1" xmlns="http://www.w3.org/2000/svg" viewBox="0 0 68.33 75"><path d="M36.67,41.94c0,.56,0,1,0,1.44,0,3.82,0,7.63.06,11.45a2.64,2.64,0,0,0,.76,2c2.67,2.7,5.35,5.4,8,8.11a8.57,8.57,0,0,1,1.15,1.4,2.06,2.06,0,0,1-.38,3,2.27,2.27,0,0,1-3,0c-1.11-.93-2.15-2-3.22-3s-2.11-1.93-3.27-3c0,.27,0,.43,0,.6-.12,2.58-.21,5.16-.37,7.74A10.63,10.63,0,0,1,36,73.82,1.45,1.45,0,0,1,34.5,75a7,7,0,0,1-1,0c-1.14-.11-1.71-.61-1.78-1.76-.19-3-.32-5.93-.47-8.9,0-.22,0-.43,0-.82-.92.83-1.75,1.55-2.54,2.31-1,1-2,2-3,3a7.07,7.07,0,0,1-1.18.85,1.93,1.93,0,0,1-2.46-.2,2.1,2.1,0,0,1-.79-2.57,5.38,5.38,0,0,1,1.06-1.53c2.46-2.56,4.95-5.1,7.44-7.64a6.17,6.17,0,0,0,1.85-4.52c0-3.44,0-6.87,0-10.31,0-.14,0-.28,0-.54-1.24.61-2.44,1.16-3.61,1.77-1.42.76-2.79,1.64-4.24,2.34a9.22,9.22,0,0,0-4.89,5.85q-1.56,5-3.22,9.9a6.25,6.25,0,0,1-1,1.79,2,2,0,0,1-2.3.66,2,2,0,0,1-1.63-1.74,6,6,0,0,1,.09-1.79,47.57,47.57,0,0,1,3-8.35c.06-.16.12-.32.25-.64-.68.41-1.21.75-1.76,1.06C10,54.44,7.77,55.72,5.5,57a5.54,5.54,0,0,1-1.06.45,2.4,2.4,0,0,1-2.86-1A2.3,2.3,0,0,1,2,53.57a11.22,11.22,0,0,1,2-1.39c2.54-1.52,5.1-3,7.79-4.59l-3-.74c-2.08-.49-4.16-1-6.23-1.47a6.29,6.29,0,0,1-1-.36A2,2,0,0,1,0,42.71,2.15,2.15,0,0,1,2.88,40.6c4.25.88,8.48,1.8,12.73,2.65a7.28,7.28,0,0,0,5.16-.83c2.66-1.51,5.31-3.05,8-4.58a3.23,3.23,0,0,0,.42-.3c-3.19-1.8-6.3-3.59-9.45-5.31A6,6,0,0,0,15.55,32c-4,.83-8,1.71-12,2.55a5.56,5.56,0,0,1-1.68.1A1.88,1.88,0,0,1,.08,32.93a2.14,2.14,0,0,1,1-2.57,13,13,0,0,1,2.51-.83c2.71-.64,5.42-1.23,8.26-1.87l-4-2.37L3.1,22.52a6.86,6.86,0,0,1-.93-.67,2.27,2.27,0,0,1-.6-3,2,2,0,0,1,2.73-1,24.5,24.5,0,0,1,3.28,1.55c1.79,1,3.55,2,5.33,3a3.44,3.44,0,0,0,.54.23c-.34-1.07-.65-2-.94-3-.62-2.05-1.28-4.08-1.83-6.14a2.11,2.11,0,0,1,.75-2.35,2.35,2.35,0,0,1,2.4-.39,3,3,0,0,1,1.61,2Q16.25,15,17,17.25q1.05,3.12,2.06,6.26a8,8,0,0,0,3.78,4.7c2.59,1.48,5.16,3,7.75,4.48.22.13.44.24.72.39,0-.22.05-.36.05-.49,0-3.76-.05-7.52,0-11.27a5.24,5.24,0,0,0-1.63-3.85c-2.5-2.52-5-5-7.47-7.61a5.8,5.8,0,0,1-1-1.54,1.9,1.9,0,0,1,.47-2.17,1.93,1.93,0,0,1,2.2-.76,6.06,6.06,0,0,1,1.85,1.09c1.82,1.62,3.6,3.3,5.39,5l.5.46c0-.35,0-.57,0-.78,0-2.68,0-5.37.09-8a6.08,6.08,0,0,1,.41-1.82c.4-1.1,1.05-1.38,2.45-1.2a1.75,1.75,0,0,1,1.71,1.73c.13,2.84.2,5.68.28,8.53,0,.56,0,1.12,0,1.88l3.83-3.7c.84-.82,1.63-1.7,2.53-2.43,1.39-1.15,2.87-1,3.78.37a2,2,0,0,1,.15,2.22A5,5,0,0,1,46,9.75c-2.52,2.6-5.06,5.18-7.57,7.78a6.19,6.19,0,0,0-1.78,4.38c0,3.59,0,7.19-.06,10.79,0,.13,0,.27,0,.52l1.71-.95c2.25-1.29,4.5-2.6,6.77-3.87a8.46,8.46,0,0,0,4-5c1.1-3.42,2.25-6.81,3.4-10.21a7.18,7.18,0,0,1,.61-1.32,2,2,0,0,1,2.47-1,4.52,4.52,0,0,1,.62.21c1.26.48,1.66,1.16,1.26,2.46-.88,2.84-1.83,5.67-2.75,8.51-.07.2-.13.41-.24.76,1-.56,1.86-1.06,2.73-1.54,1.63-.92,3.23-1.92,4.92-2.71A7.07,7.07,0,0,1,65,18,1.86,1.86,0,0,1,66.7,21a3.93,3.93,0,0,1-1.32,1.37c-2.73,1.68-5.5,3.29-8.25,4.93-.19.11-.37.24-.66.42l3.85.88c1.65.36,3.31.71,5,1.09A4.82,4.82,0,0,1,68,31.08a2.42,2.42,0,0,1,.13,2.32c-1,1.34-2.27,1.46-3.73,1.14L51.66,31.77a4.24,4.24,0,0,0-3.15.45c-3.12,1.8-6.27,3.55-9.5,5.37,3.06,1.72,6,3.42,9,5.06a7.41,7.41,0,0,0,5.42.4Q59,41.79,64.67,40.62a3.23,3.23,0,0,1,3.35,1,2.43,2.43,0,0,1,0,2.27,4.9,4.9,0,0,1-3,1.71L56.43,47.5l3.16,1.88c2,1.21,4.11,2.41,6.14,3.64A2.28,2.28,0,0,1,67,55.77a2,2,0,0,1-2.81,1.67,17.08,17.08,0,0,1-3-1.37C59,54.92,57,53.71,54.75,52.44c.23.82.43,1.52.63,2.21l2,6.89a4.25,4.25,0,0,1,.17.77,1.59,1.59,0,0,1-1.22,1.89,5.55,5.55,0,0,1-1,.21,2,2,0,0,1-2.43-1.51c-.55-1.3-1-2.63-1.48-4Q50.2,55.24,49,51.52A7.76,7.76,0,0,0,45.37,47c-2.68-1.53-5.34-3.09-8-4.63Z"/></svg>